<svg xmlns="http://www.w3.org/2000/svg" xmlns:xlink="http://www.w3.org/1999/xlink" width="542" zoomAndPan="magnify" viewBox="0 0 406.5 127.500001" height="170" preserveAspectRatio="xMidYMid meet" version="1.0"><defs><g/><clipPath id="8f1045b72f"><path d="M 50.464844 54.046875 L 68.027344 54.046875 L 68.027344 80.703125 L 50.464844 80.703125 Z M 50.464844 54.046875 " clip-rule="nonzero"/></clipPath><clipPath id="55afdddb48"><path d="M 50.464844 57.550781 L 97.53125 57.550781 L 97.53125 76.976562 L 50.464844 76.976562 Z M 50.464844 57.550781 " clip-rule="nonzero"/></clipPath><clipPath id="cb56664153"><path d="M 42.515625 54.046875 L 54.621094 54.046875 L 54.621094 80.703125 L 42.515625 80.703125 Z M 42.515625 54.046875 " clip-rule="nonzero"/></clipPath></defs><g fill="#efefed" fill-opacity="1"><g transform="translate(38.578086, 81.350495)"><g><path d="M 3.953125 -54.28125 L 20.796875 -54.28125 C 25.878906 -54.28125 29.929688 -53.191406 32.953125 -51.015625 C 35.984375 -48.847656 37.5 -45.332031 37.5 -40.46875 C 37.5 -35.03125 35.242188 -31.144531 30.734375 -28.8125 C 38.453125 -27.457031 42.3125 -22.898438 42.3125 -15.140625 C 42.3125 -10.578125 40.726562 -6.910156 37.5625 -4.140625 C 34.40625 -1.378906 30.066406 0 24.546875 0 L 3.953125 0 Z M 16.3125 -33.03125 L 17.296875 -33.03125 C 20.066406 -33.03125 22.128906 -33.507812 23.484375 -34.46875 C 24.847656 -35.4375 25.53125 -37.019531 25.53125 -39.21875 C 25.53125 -42.894531 22.785156 -44.734375 17.296875 -44.734375 L 16.3125 -44.734375 Z M 16.3125 -9.546875 L 20.203125 -9.546875 C 26.253906 -9.546875 29.28125 -11.5625 29.28125 -15.59375 C 29.28125 -18.007812 28.519531 -19.742188 27 -20.796875 C 25.488281 -21.847656 23.222656 -22.375 20.203125 -22.375 L 16.3125 -22.375 Z M 16.3125 -9.546875 "/></g></g></g><g fill="#efefed" fill-opacity="1"><g transform="translate(77.46369, 81.350495)"><g><path d="M 31.515625 -54.28125 L 53.421875 0 L 40.140625 0 L 36.125 -10.859375 L 15.46875 -10.859375 L 11.453125 0 L -1.84375 0 L 20.0625 -54.28125 Z M 31.90625 -21.71875 L 25.859375 -37.5 L 25.734375 -37.5 L 19.671875 -21.71875 Z M 31.90625 -21.71875 "/></g></g></g><g fill="#efefed" fill-opacity="1"><g transform="translate(124.113481, 81.350495)"><g><path d="M -1.96875 -54.28125 L 12.890625 -54.28125 L 24.21875 -36.90625 L 35.53125 -54.28125 L 50.40625 -54.28125 L 30.390625 -24.34375 L 30.390625 0 L 18.03125 0 L 18.03125 -24.34375 Z M -1.96875 -54.28125 "/></g></g></g><g fill="#efefed" fill-opacity="1"><g transform="translate(167.60496, 81.350495)"><g><path d="M 23.953125 -55.265625 C 26.890625 -55.265625 29.757812 -54.835938 32.5625 -53.984375 C 35.375 -53.128906 37.457031 -52.285156 38.8125 -51.453125 L 40.796875 -50.140625 L 35.796875 -40.265625 C 35.398438 -40.523438 34.847656 -40.863281 34.140625 -41.28125 C 33.441406 -41.695312 32.128906 -42.253906 30.203125 -42.953125 C 28.273438 -43.660156 26.476562 -44.015625 24.8125 -44.015625 C 22.75 -44.015625 21.15625 -43.578125 20.03125 -42.703125 C 18.914062 -41.828125 18.359375 -40.644531 18.359375 -39.15625 C 18.359375 -38.40625 18.617188 -37.710938 19.140625 -37.078125 C 19.671875 -36.441406 20.570312 -35.757812 21.84375 -35.03125 C 23.113281 -34.3125 24.226562 -33.734375 25.1875 -33.296875 C 26.15625 -32.859375 27.648438 -32.195312 29.671875 -31.3125 C 33.179688 -29.820312 36.175781 -27.796875 38.65625 -25.234375 C 41.132812 -22.671875 42.375 -19.765625 42.375 -16.515625 C 42.375 -13.398438 41.8125 -10.679688 40.6875 -8.359375 C 39.570312 -6.035156 38.035156 -4.210938 36.078125 -2.890625 C 34.128906 -1.578125 31.972656 -0.601562 29.609375 0.03125 C 27.242188 0.664062 24.675781 0.984375 21.90625 0.984375 C 19.539062 0.984375 17.21875 0.742188 14.9375 0.265625 C 12.65625 -0.210938 10.742188 -0.8125 9.203125 -1.53125 C 7.671875 -2.257812 6.289062 -2.972656 5.0625 -3.671875 C 3.832031 -4.378906 2.9375 -4.976562 2.375 -5.46875 L 1.515625 -6.1875 L 7.703125 -16.578125 C 8.222656 -16.140625 8.941406 -15.582031 9.859375 -14.90625 C 10.785156 -14.226562 12.421875 -13.316406 14.765625 -12.171875 C 17.117188 -11.035156 19.191406 -10.46875 20.984375 -10.46875 C 26.203125 -10.46875 28.8125 -12.242188 28.8125 -15.796875 C 28.8125 -16.535156 28.625 -17.222656 28.25 -17.859375 C 27.882812 -18.492188 27.226562 -19.128906 26.28125 -19.765625 C 25.34375 -20.398438 24.507812 -20.90625 23.78125 -21.28125 C 23.0625 -21.65625 21.878906 -22.222656 20.234375 -22.984375 C 18.585938 -23.753906 17.367188 -24.335938 16.578125 -24.734375 C 13.285156 -26.359375 10.738281 -28.390625 8.9375 -30.828125 C 7.144531 -33.265625 6.25 -35.882812 6.25 -38.6875 C 6.25 -43.550781 8.046875 -47.53125 11.640625 -50.625 C 15.242188 -53.71875 19.347656 -55.265625 23.953125 -55.265625 Z M 23.953125 -55.265625 "/></g></g></g><g fill="#efefed" fill-opacity="1"><g transform="translate(206.885353, 81.350495)"><g><path d="M 35 -54.28125 L 35 -43.421875 L 16.3125 -43.421875 L 16.3125 -32.640625 L 34.21875 -32.640625 L 34.21875 -21.78125 L 16.3125 -21.78125 L 16.3125 -10.859375 L 35 -10.859375 L 35 0 L 3.953125 0 L 3.953125 -54.28125 Z M 35 -54.28125 "/></g></g></g><g fill="#efefed" fill-opacity="1"><g transform="translate(240.11232, 81.350495)"><g><path d="M 16.3125 -33.6875 L 16.3125 0 L 3.953125 0 L 3.953125 -54.28125 L 16.3125 -54.28125 L 37.90625 -20.59375 L 38.03125 -20.59375 L 38.03125 -54.28125 L 50.40625 -54.28125 L 50.40625 0 L 38.03125 0 L 16.453125 -33.6875 Z M 16.3125 -33.6875 "/></g></g></g><g fill="#efefed" fill-opacity="1"><g transform="translate(289.525642, 81.350495)"><g><path d="M 23.953125 -55.265625 C 26.890625 -55.265625 29.757812 -54.835938 32.5625 -53.984375 C 35.375 -53.128906 37.457031 -52.285156 38.8125 -51.453125 L 40.796875 -50.140625 L 35.796875 -40.265625 C 35.398438 -40.523438 34.847656 -40.863281 34.140625 -41.28125 C 33.441406 -41.695312 32.128906 -42.253906 30.203125 -42.953125 C 28.273438 -43.660156 26.476562 -44.015625 24.8125 -44.015625 C 22.75 -44.015625 21.15625 -43.578125 20.03125 -42.703125 C 18.914062 -41.828125 18.359375 -40.644531 18.359375 -39.15625 C 18.359375 -38.40625 18.617188 -37.710938 19.140625 -37.078125 C 19.671875 -36.441406 20.570312 -35.757812 21.84375 -35.03125 C 23.113281 -34.3125 24.226562 -33.734375 25.1875 -33.296875 C 26.15625 -32.859375 27.648438 -32.195312 29.671875 -31.3125 C 33.179688 -29.820312 36.175781 -27.796875 38.65625 -25.234375 C 41.132812 -22.671875 42.375 -19.765625 42.375 -16.515625 C 42.375 -13.398438 41.8125 -10.679688 40.6875 -8.359375 C 39.570312 -6.035156 38.035156 -4.210938 36.078125 -2.890625 C 34.128906 -1.578125 31.972656 -0.601562 29.609375 0.03125 C 27.242188 0.664062 24.675781 0.984375 21.90625 0.984375 C 19.539062 0.984375 17.21875 0.742188 14.9375 0.265625 C 12.65625 -0.210938 10.742188 -0.8125 9.203125 -1.53125 C 7.671875 -2.257812 6.289062 -2.972656 5.0625 -3.671875 C 3.832031 -4.378906 2.9375 -4.976562 2.375 -5.46875 L 1.515625 -6.1875 L 7.703125 -16.578125 C 8.222656 -16.140625 8.941406 -15.582031 9.859375 -14.90625 C 10.785156 -14.226562 12.421875 -13.316406 14.765625 -12.171875 C 17.117188 -11.035156 19.191406 -10.46875 20.984375 -10.46875 C 26.203125 -10.46875 28.8125 -12.242188 28.8125 -15.796875 C 28.8125 -16.535156 28.625 -17.222656 28.25 -17.859375 C 27.882812 -18.492188 27.226562 -19.128906 26.28125 -19.765625 C 25.34375 -20.398438 24.507812 -20.90625 23.78125 -21.28125 C 23.0625 -21.65625 21.878906 -22.222656 20.234375 -22.984375 C 18.585938 -23.753906 17.367188 -24.335938 16.578125 -24.734375 C 13.285156 -26.359375 10.738281 -28.390625 8.9375 -30.828125 C 7.144531 -33.265625 6.25 -35.882812 6.25 -38.6875 C 6.25 -43.550781 8.046875 -47.53125 11.640625 -50.625 C 15.242188 -53.71875 19.347656 -55.265625 23.953125 -55.265625 Z M 23.953125 -55.265625 "/></g></g></g><g fill="#efefed" fill-opacity="1"><g transform="translate(328.806046, 81.350495)"><g><path d="M 35 -54.28125 L 35 -43.421875 L 16.3125 -43.421875 L 16.3125 -32.640625 L 34.21875 -32.640625 L 34.21875 -21.78125 L 16.3125 -21.78125 L 16.3125 -10.859375 L 35 -10.859375 L 35 0 L 3.953125 0 L 3.953125 -54.28125 Z M 35 -54.28125 "/></g></g></g><g clip-path="url(#8f1045b72f)"><path fill="#efefed" d="M 50.464844 54.046875 L 68.027344 54.046875 L 68.027344 80.734375 L 50.464844 80.734375 Z M 50.464844 54.046875 " fill-opacity="1" fill-rule="nonzero"/></g><g clip-path="url(#55afdddb48)"><path fill="#4497d7" d="M 96.898438 67.636719 C 96.515625 67.644531 96.152344 67.792969 95.773438 67.734375 C 95.765625 67.707031 95.761719 67.660156 95.753906 67.636719 C 96.082031 67.488281 96.445312 67.394531 96.746094 67.179688 C 96.90625 67.023438 97.132812 66.839844 97.027344 66.585938 C 96.90625 66.0625 96.425781 65.734375 96.011719 65.453125 C 95.519531 65.105469 94.960938 64.875 94.433594 64.597656 C 93.851562 64.351562 93.070312 63.4375 85.183594 61.949219 C 82.273438 61.390625 79.328125 61.136719 79.207031 61.046875 C 76.488281 61.09375 73.746094 58.003906 72.910156 57.753906 C 72.78125 57.667969 72.6875 58.003906 72.625 58.003906 C 72.546875 58.496094 72.324219 62.164062 72.773438 62.300781 C 72.265625 62.453125 71.734375 62.4375 71.21875 62.546875 C 70.375 62.710938 66.082031 64.003906 63.882812 64.511719 C 63.101562 64.65625 62.300781 64.625 61.511719 64.628906 C 60.75 64.613281 60 64.445312 59.269531 64.253906 C 58.375 64 51.183594 60.992188 51.136719 61.238281 C 51.15625 63.238281 52.21875 64.59375 52.980469 66.371094 C 53.007812 66.628906 53.113281 66.878906 53.078125 67.144531 C 52.65625 68.519531 51.054688 69.707031 50.660156 71.128906 C 50.664062 71.402344 50.546875 71.644531 50.445312 71.890625 C 50.773438 71.914062 51.105469 71.933594 51.433594 71.925781 C 52.15625 71.839844 56.378906 70.777344 57.03125 70.625 C 57.664062 70.476562 58.261719 70.207031 58.886719 70.050781 C 59.246094 69.964844 59.566406 69.78125 59.921875 69.722656 C 60.632812 69.628906 61.347656 69.542969 62.066406 69.613281 C 62.566406 69.664062 63.0625 69.710938 63.554688 69.816406 C 63.929688 69.898438 66.683594 70.421875 68.335938 70.984375 C 69.421875 71.070312 73.539062 72.75 73.925781 72.832031 C 73.292969 73.863281 73.363281 74.429688 73.199219 75.65625 C 73.09375 76.089844 73.074219 76.585938 73.375 76.941406 C 73.511719 77.070312 73.734375 77.078125 73.886719 76.976562 C 76.113281 74.609375 78.613281 73.699219 78.71875 73.363281 C 80.074219 73.523438 81.4375 73.382812 82.796875 73.390625 C 90.277344 73.3125 95.464844 69.339844 95.941406 69.078125 C 96.34375 68.875 96.769531 68.648438 97.007812 68.253906 C 97.199219 68.082031 97.132812 67.726562 96.898438 67.636719 Z M 92.371094 67.398438 C 91.929688 67.398438 91.574219 67.042969 91.574219 66.601562 C 91.574219 66.160156 91.929688 65.804688 92.371094 65.804688 C 92.8125 65.804688 93.171875 66.160156 93.171875 66.601562 C 93.171875 67.042969 92.8125 67.398438 92.371094 67.398438 Z M 92.371094 67.398438 " fill-opacity="1" fill-rule="nonzero"/></g><g clip-path="url(#cb56664153)"><path fill="#efefed" d="M 42.515625 54.046875 L 54.621094 54.046875 L 54.621094 80.722656 L 42.515625 80.722656 Z M 42.515625 54.046875 " fill-opacity="1" fill-rule="nonzero"/></g></svg>