<svg xmlns="http://www.w3.org/2000/svg" xmlns:xlink="http://www.w3.org/1999/xlink" width="500" zoomAndPan="magnify" viewBox="0 0 375 374.999991" height="500" preserveAspectRatio="xMidYMid meet" version="1.0"><defs><g/><clipPath id="2eeda2a6b9"><path d="M 111.71875 177.941406 L 195.511719 177.941406 L 195.511719 305.136719 L 111.71875 305.136719 Z M 111.71875 177.941406 " clip-rule="nonzero"/></clipPath><clipPath id="5e44215009"><path d="M 254.261719 232.582031 L 315.539062 232.582031 L 315.539062 245.546875 L 254.261719 245.546875 Z M 254.261719 232.582031 " clip-rule="nonzero"/></clipPath><clipPath id="763f87f5cc"><path d="M 109.136719 194 L 337 194 L 337 289 L 109.136719 289 Z M 109.136719 194 " clip-rule="nonzero"/></clipPath><clipPath id="cf71c32f4d"><path d="M 111.71875 195 L 335 195 L 335 288 L 111.71875 288 Z M 111.71875 195 " clip-rule="nonzero"/></clipPath><clipPath id="916691713d"><path d="M 73.78125 177.941406 L 131.546875 177.941406 L 131.546875 305.136719 L 73.78125 305.136719 Z M 73.78125 177.941406 " clip-rule="nonzero"/></clipPath></defs><rect x="-37.5" width="450" fill="#ffffff" y="-37.499999" height="449.999989" fill-opacity="1"/><rect x="-37.5" width="450" fill="#4497d7" y="-37.499999" height="449.999989" fill-opacity="1"/><g fill="#efefed" fill-opacity="1"><g transform="translate(45.988722, 324.265508)"><g><path d="M 20.5625 -282.796875 L 108.3125 -282.796875 C 134.820312 -282.796875 155.960938 -277.140625 171.734375 -265.828125 C 187.503906 -254.515625 195.390625 -236.175781 195.390625 -210.8125 C 195.390625 -182.476562 183.617188 -162.253906 160.078125 -150.140625 C 200.296875 -143.054688 220.40625 -119.289062 220.40625 -78.84375 C 220.40625 -55.070312 212.175781 -35.988281 195.71875 -21.59375 C 179.269531 -7.195312 156.648438 0 127.859375 0 L 20.5625 0 Z M 85.015625 -172.078125 L 90.15625 -172.078125 C 104.550781 -172.078125 115.289062 -174.585938 122.375 -179.609375 C 129.457031 -184.640625 133 -192.867188 133 -204.296875 C 133 -223.492188 118.71875 -233.09375 90.15625 -233.09375 L 85.015625 -233.09375 Z M 85.015625 -49.703125 L 105.234375 -49.703125 C 136.765625 -49.703125 152.53125 -60.210938 152.53125 -81.234375 C 152.53125 -93.804688 148.585938 -102.832031 140.703125 -108.3125 C 132.828125 -113.800781 121.003906 -116.546875 105.234375 -116.546875 L 85.015625 -116.546875 Z M 85.015625 -49.703125 "/></g></g></g><g clip-path="url(#2eeda2a6b9)"><path fill="#efefed" d="M 111.71875 177.941406 L 195.511719 177.941406 L 195.511719 305.273438 L 111.71875 305.273438 Z M 111.71875 177.941406 " fill-opacity="1" fill-rule="nonzero"/></g><g clip-path="url(#5e44215009)"><path fill="#efefed" d="M 254.261719 232.582031 L 315.542969 232.582031 L 315.542969 245.546875 L 254.261719 245.546875 Z M 254.261719 232.582031 " fill-opacity="1" fill-rule="nonzero"/></g><g clip-path="url(#763f87f5cc)"><path fill="#efefed" d="M 335.824219 242.8125 C 333.960938 242.863281 332.195312 243.585938 330.339844 243.300781 C 330.304688 243.171875 330.269531 242.9375 330.25 242.8125 C 331.847656 242.089844 333.617188 241.636719 335.078125 240.59375 C 335.859375 239.835938 336.980469 238.933594 336.453125 237.691406 C 335.875 235.125 333.53125 233.539062 331.507812 232.152344 C 329.089844 230.453125 326.371094 229.335938 323.789062 227.984375 C 320.957031 226.773438 317.136719 222.328125 278.632812 215.050781 C 264.433594 212.328125 250.054688 211.09375 249.453125 210.640625 C 236.183594 210.886719 222.800781 195.78125 218.726562 194.574219 C 218.09375 194.15625 217.625 195.796875 217.316406 195.796875 L 217.320312 195.796875 C 216.9375 198.199219 215.847656 216.109375 218.046875 216.777344 C 215.574219 217.519531 212.980469 217.429688 210.46875 217.972656 C 206.335938 218.765625 185.371094 225.089844 174.632812 227.558594 C 170.828125 228.261719 166.925781 228.121094 163.074219 228.136719 C 159.355469 228.070312 155.695312 227.246094 152.121094 226.3125 C 147.757812 225.066406 112.652344 210.378906 112.414062 211.585938 C 112.503906 221.34375 117.703125 227.957031 121.417969 236.632812 C 121.542969 237.898438 122.0625 239.117188 121.886719 240.417969 C 119.828125 247.125 112.015625 252.921875 110.089844 259.863281 C 110.105469 261.199219 109.53125 262.386719 109.039062 263.59375 C 110.648438 263.699219 112.253906 263.792969 113.875 263.753906 C 117.394531 263.34375 138.015625 258.144531 141.1875 257.402344 C 144.292969 256.6875 147.195312 255.363281 150.257812 254.609375 C 152 254.195312 153.5625 253.292969 155.308594 253.003906 C 158.773438 252.550781 162.277344 252.121094 165.777344 252.460938 C 168.214844 252.710938 170.644531 252.949219 173.050781 253.46875 C 174.867188 253.871094 188.320312 256.414062 196.378906 259.167969 C 201.679688 259.585938 221.78125 267.777344 223.675781 268.175781 C 220.582031 273.214844 220.921875 275.984375 220.121094 281.972656 C 219.605469 284.082031 219.511719 286.507812 220.984375 288.25 C 221.652344 288.882812 222.738281 288.914062 223.492188 288.414062 C 234.355469 276.859375 246.550781 272.410156 247.070312 270.769531 C 253.6875 271.5625 260.347656 270.875 266.984375 270.914062 C 303.5 270.527344 328.835938 251.144531 331.164062 249.863281 C 333.113281 248.871094 335.195312 247.769531 336.367188 245.839844 C 337.300781 244.992188 336.976562 243.265625 335.824219 242.8125 Z M 313.726562 241.664062 C 311.574219 241.664062 309.835938 239.917969 309.835938 237.765625 C 309.835938 235.617188 311.574219 233.871094 313.726562 233.871094 C 315.882812 233.871094 317.628906 235.617188 317.628906 237.765625 C 317.628906 239.917969 315.882812 241.664062 313.726562 241.664062 Z M 313.726562 241.664062 " fill-opacity="1" fill-rule="nonzero"/></g><g clip-path="url(#cf71c32f4d)"><path fill="#4497d7" d="M 333.273438 242.785156 C 331.453125 242.832031 329.726562 243.539062 327.914062 243.257812 C 327.875 243.132812 327.84375 242.90625 327.824219 242.785156 C 329.386719 242.074219 331.117188 241.632812 332.542969 240.613281 C 333.308594 239.871094 334.402344 238.992188 333.890625 237.777344 C 333.320312 235.269531 331.03125 233.71875 329.054688 232.363281 C 326.691406 230.703125 324.03125 229.609375 321.511719 228.289062 C 318.742188 227.109375 315.007812 222.761719 277.375 215.648438 C 263.5 212.988281 249.441406 211.78125 248.855469 211.339844 C 235.886719 211.578125 222.808594 196.816406 218.824219 195.636719 C 218.207031 195.226562 217.75 196.832031 217.445312 196.832031 L 217.453125 196.832031 C 217.074219 199.179688 216.011719 216.683594 218.160156 217.339844 C 215.742188 218.0625 213.210938 217.972656 210.753906 218.503906 C 206.71875 219.277344 186.226562 225.460938 175.730469 227.871094 C 172.011719 228.5625 168.199219 228.425781 164.433594 228.441406 C 160.796875 228.371094 157.21875 227.566406 153.726562 226.65625 C 149.464844 225.4375 115.152344 211.082031 114.917969 212.261719 C 115.007812 221.800781 120.089844 228.265625 123.71875 236.742188 C 123.839844 237.976562 124.351562 239.171875 124.179688 240.441406 C 122.164062 246.996094 114.53125 252.664062 112.648438 259.445312 C 112.664062 260.753906 112.101562 261.914062 111.621094 263.09375 C 113.191406 263.199219 114.761719 263.289062 116.34375 263.25 C 119.785156 262.847656 139.941406 257.769531 143.042969 257.042969 C 146.074219 256.34375 148.910156 255.050781 151.90625 254.3125 C 153.609375 253.90625 155.136719 253.027344 156.84375 252.742188 C 160.230469 252.300781 163.652344 251.882812 167.074219 252.214844 C 169.457031 252.457031 171.832031 252.691406 174.183594 253.199219 C 175.960938 253.589844 189.109375 256.078125 196.984375 258.769531 C 202.164062 259.175781 221.808594 267.183594 223.664062 267.570312 C 220.636719 272.496094 220.972656 275.203125 220.191406 281.058594 C 219.683594 283.121094 219.59375 285.488281 221.03125 287.191406 C 221.683594 287.8125 222.75 287.839844 223.484375 287.351562 C 234.101562 276.058594 246.019531 271.710938 246.527344 270.109375 C 252.996094 270.882812 259.507812 270.210938 265.992188 270.246094 C 301.679688 269.871094 326.441406 250.925781 328.71875 249.671875 C 330.625 248.703125 332.65625 247.625 333.800781 245.742188 C 334.71875 244.914062 334.402344 243.226562 333.273438 242.785156 Z M 311.675781 241.660156 C 309.574219 241.660156 307.871094 239.953125 307.871094 237.851562 C 307.871094 235.75 309.574219 234.042969 311.675781 234.042969 C 313.78125 234.042969 315.488281 235.75 315.488281 237.851562 C 315.488281 239.953125 313.785156 241.660156 311.675781 241.660156 Z M 311.675781 241.660156 " fill-opacity="1" fill-rule="nonzero"/></g><g clip-path="url(#916691713d)"><path fill="#efefed" d="M 73.78125 177.941406 L 131.546875 177.941406 L 131.546875 305.210938 L 73.78125 305.210938 Z M 73.78125 177.941406 " fill-opacity="1" fill-rule="nonzero"/></g></svg>