<svg xmlns="http://www.w3.org/2000/svg" xmlns:xlink="http://www.w3.org/1999/xlink" width="500" zoomAndPan="magnify" viewBox="0 0 375 374.999991" height="500" preserveAspectRatio="xMidYMid meet" version="1.0"><defs><g/><clipPath id="3a809824b1"><path d="M 101.734375 200 L 349 200 L 349 303 L 101.734375 303 Z M 101.734375 200 " clip-rule="nonzero"/></clipPath><clipPath id="aaeac020b4"><path d="M 104.535156 182.210938 L 195.453125 182.210938 L 195.453125 320.21875 L 104.535156 320.21875 Z M 104.535156 182.210938 " clip-rule="nonzero"/></clipPath><clipPath id="595987a374"><path d="M 259.195312 241.496094 L 325.6875 241.496094 L 325.6875 255.5625 L 259.195312 255.5625 Z M 259.195312 241.496094 " clip-rule="nonzero"/></clipPath><clipPath id="a646daaa5e"><path d="M 103.722656 201 L 345.972656 201 L 345.972656 302 L 103.722656 302 Z M 103.722656 201 " clip-rule="nonzero"/></clipPath><clipPath id="89a39aeda2"><path d="M 63.371094 182.210938 L 126.050781 182.210938 L 126.050781 320.21875 L 63.371094 320.21875 Z M 63.371094 182.210938 " clip-rule="nonzero"/></clipPath></defs><g fill="#4497d7" fill-opacity="1"><g transform="translate(33.218125, 340.975972)"><g><path d="M 22.3125 -306.828125 L 117.53125 -306.828125 C 146.289062 -306.828125 169.222656 -300.691406 186.328125 -288.421875 C 203.441406 -276.148438 212 -256.253906 212 -228.734375 C 212 -197.984375 199.226562 -176.039062 173.6875 -162.90625 C 217.320312 -155.21875 239.140625 -129.429688 239.140625 -85.546875 C 239.140625 -59.753906 230.210938 -39.046875 212.359375 -23.421875 C 194.515625 -7.804688 169.972656 0 138.734375 0 L 22.3125 0 Z M 92.234375 -186.703125 L 97.8125 -186.703125 C 113.4375 -186.703125 125.09375 -189.425781 132.78125 -194.875 C 140.46875 -200.332031 144.3125 -209.265625 144.3125 -221.671875 C 144.3125 -242.492188 128.8125 -252.90625 97.8125 -252.90625 L 92.234375 -252.90625 Z M 92.234375 -53.921875 L 114.1875 -53.921875 C 148.394531 -53.921875 165.5 -65.328125 165.5 -88.140625 C 165.5 -101.773438 161.222656 -111.566406 152.671875 -117.515625 C 144.117188 -123.472656 131.289062 -126.453125 114.1875 -126.453125 L 92.234375 -126.453125 Z M 92.234375 -53.921875 "/></g></g></g><g clip-path="url(#3a809824b1)"><path fill="#4497d7" d="M 347.699219 252.601562 C 345.679688 252.65625 343.761719 253.441406 341.75 253.128906 C 341.707031 252.988281 341.671875 252.734375 341.652344 252.601562 C 343.386719 251.8125 345.304688 251.324219 346.890625 250.191406 C 347.738281 249.367188 348.953125 248.390625 348.382812 247.042969 C 347.753906 244.257812 345.210938 242.535156 343.015625 241.03125 C 340.390625 239.1875 337.441406 237.972656 334.640625 236.511719 C 331.566406 235.199219 327.421875 230.371094 285.644531 222.476562 C 270.238281 219.523438 254.632812 218.183594 253.984375 217.691406 C 239.585938 217.957031 225.066406 201.570312 220.640625 200.257812 C 219.957031 199.804688 219.449219 201.585938 219.113281 201.585938 L 219.117188 201.585938 C 218.699219 204.191406 217.519531 223.625 219.90625 224.351562 C 217.222656 225.152344 214.410156 225.058594 211.683594 225.644531 C 207.199219 226.503906 184.453125 233.371094 172.800781 236.046875 C 168.671875 236.8125 164.4375 236.660156 160.257812 236.675781 C 156.222656 236.601562 152.25 235.707031 148.375 234.695312 C 143.640625 233.34375 105.546875 217.40625 105.289062 218.714844 C 105.390625 229.304688 111.03125 236.480469 115.058594 245.894531 C 115.195312 247.265625 115.761719 248.589844 115.570312 250 C 113.335938 257.277344 104.859375 263.570312 102.769531 271.097656 C 102.785156 272.546875 102.160156 273.835938 101.628906 275.148438 C 103.375 275.261719 105.117188 275.363281 106.875 275.324219 C 110.695312 274.875 133.070312 269.234375 136.511719 268.429688 C 139.878906 267.652344 143.027344 266.214844 146.351562 265.398438 C 148.242188 264.949219 149.941406 263.972656 151.835938 263.65625 C 155.59375 263.164062 159.394531 262.699219 163.191406 263.070312 C 165.839844 263.339844 168.472656 263.597656 171.082031 264.164062 C 173.054688 264.597656 187.652344 267.359375 196.398438 270.347656 C 202.148438 270.796875 223.957031 279.6875 226.015625 280.117188 C 222.65625 285.585938 223.027344 288.589844 222.160156 295.089844 C 221.59375 297.378906 221.496094 300.007812 223.09375 301.898438 C 223.816406 302.585938 225 302.621094 225.8125 302.078125 C 237.601562 289.542969 250.832031 284.714844 251.398438 282.933594 C 258.578125 283.792969 265.804688 283.050781 273.007812 283.089844 C 312.625 282.671875 340.117188 261.640625 342.644531 260.246094 C 344.757812 259.171875 347.015625 257.976562 348.285156 255.882812 C 349.300781 254.964844 348.949219 253.089844 347.699219 252.601562 Z M 323.722656 251.351562 C 321.386719 251.351562 319.5 249.460938 319.5 247.125 C 319.5 244.789062 321.386719 242.894531 323.722656 242.894531 C 326.058594 242.894531 327.953125 244.789062 327.953125 247.125 C 327.957031 249.460938 326.0625 251.351562 323.722656 251.351562 Z M 323.722656 251.351562 " fill-opacity="1" fill-rule="nonzero"/></g><g clip-path="url(#aaeac020b4)"><path fill="#4497d7" d="M 104.535156 182.210938 L 195.453125 182.210938 L 195.453125 320.367188 L 104.535156 320.367188 Z M 104.535156 182.210938 " fill-opacity="1" fill-rule="nonzero"/></g><g clip-path="url(#595987a374)"><path fill="#4497d7" d="M 259.195312 241.496094 L 325.6875 241.496094 L 325.6875 255.5625 L 259.195312 255.5625 Z M 259.195312 241.496094 " fill-opacity="1" fill-rule="nonzero"/></g><g clip-path="url(#a646daaa5e)"><path fill="#efefed" d="M 344.109375 252.570312 C 342.136719 252.625 340.261719 253.390625 338.296875 253.085938 C 338.257812 252.949219 338.21875 252.699219 338.199219 252.570312 C 339.894531 251.800781 341.773438 251.324219 343.320312 250.214844 C 344.148438 249.410156 345.335938 248.457031 344.78125 247.136719 C 344.164062 244.417969 341.679688 242.734375 339.535156 241.261719 C 336.96875 239.460938 334.085938 238.273438 331.351562 236.84375 C 328.34375 235.5625 324.292969 230.84375 283.460938 223.128906 C 268.40625 220.242188 253.15625 218.929688 252.519531 218.453125 C 238.449219 218.710938 224.257812 202.695312 219.933594 201.414062 C 219.261719 200.972656 218.765625 202.710938 218.4375 202.710938 L 218.445312 202.710938 C 218.035156 205.257812 216.878906 224.253906 219.210938 224.960938 C 216.589844 225.746094 213.84375 225.652344 211.175781 226.226562 C 206.796875 227.066406 184.5625 233.777344 173.175781 236.390625 C 169.140625 237.140625 165.003906 236.988281 160.917969 237.007812 C 156.972656 236.933594 153.089844 236.058594 149.304688 235.070312 C 144.675781 233.75 107.445312 218.175781 107.195312 219.453125 C 107.289062 229.804688 112.804688 236.816406 116.742188 246.015625 C 116.875 247.355469 117.429688 248.652344 117.242188 250.027344 C 115.058594 257.140625 106.773438 263.289062 104.730469 270.648438 C 104.746094 272.066406 104.136719 273.324219 103.617188 274.605469 C 105.324219 274.71875 107.027344 274.816406 108.742188 274.777344 C 112.476562 274.339844 134.34375 268.828125 137.710938 268.042969 C 141 267.28125 144.078125 265.878906 147.328125 265.078125 C 149.171875 264.636719 150.832031 263.683594 152.683594 263.375 C 156.359375 262.894531 160.070312 262.441406 163.785156 262.800781 C 166.371094 263.066406 168.945312 263.320312 171.496094 263.871094 C 173.425781 264.292969 187.691406 266.992188 196.238281 269.914062 C 201.855469 270.355469 223.171875 279.042969 225.183594 279.464844 C 221.902344 284.808594 222.261719 287.746094 221.414062 294.097656 C 220.863281 296.335938 220.769531 298.902344 222.328125 300.753906 C 223.035156 301.425781 224.191406 301.457031 224.988281 300.929688 C 236.507812 288.675781 249.441406 283.957031 249.992188 282.21875 C 257.011719 283.054688 264.074219 282.328125 271.113281 282.367188 C 309.832031 281.960938 336.699219 261.402344 339.171875 260.042969 C 341.238281 258.992188 343.441406 257.824219 344.683594 255.777344 C 345.679688 254.878906 345.335938 253.050781 344.109375 252.570312 Z M 320.679688 251.351562 C 318.398438 251.351562 316.550781 249.5 316.550781 247.21875 C 316.550781 244.9375 318.398438 243.085938 320.679688 243.085938 C 322.960938 243.085938 324.8125 244.9375 324.8125 247.21875 C 324.816406 249.5 322.964844 251.351562 320.679688 251.351562 Z M 320.679688 251.351562 " fill-opacity="1" fill-rule="nonzero"/></g><g clip-path="url(#89a39aeda2)"><path fill="#4497d7" d="M 63.371094 182.210938 L 126.050781 182.210938 L 126.050781 320.300781 L 63.371094 320.300781 Z M 63.371094 182.210938 " fill-opacity="1" fill-rule="nonzero"/></g></svg>